<svg width="40" height="40" viewBox="0 0 40 40" fill="none" xmlns="http://www.w3.org/2000/svg">
<circle cx="20" cy="20" r="20" fill="black"/>
<path d="M13.578 25.0071C13.1875 25.3977 13.1875 26.0308 13.578 26.4213C13.9686 26.8119 14.6017 26.8119 14.9923 26.4213L13.578 25.0071ZM26.7137 14.2857C26.7137 13.7334 26.266 13.2857 25.7137 13.2857L16.7137 13.2857C16.1614 13.2857 15.7137 13.7334 15.7137 14.2857C15.7137 14.8379 16.1614 15.2857 16.7137 15.2857L24.7137 15.2857L24.7137 23.2857C24.7137 23.8379 25.1614 24.2857 25.7137 24.2857C26.266 24.2857 26.7137 23.8379 26.7137 23.2857L26.7137 14.2857ZM14.9923 26.4213L26.4208 14.9928L25.0066 13.5786L13.578 25.0071L14.9923 26.4213Z" fill="white"/>
</svg>
